<?xml version="1.0" encoding="UTF-8"?>
<svg width="32px" height="32px" viewBox="0 0 32 32" version="1.1" xmlns="http://www.w3.org/2000/svg" xmlns:xlink="http://www.w3.org/1999/xlink">
    <!-- Generator: Sketch 51 (57462) - http://www.bohemiancoding.com/sketch -->
    <title>behance-icon-white</title>
    <desc>Created with Sketch.</desc>
    <defs></defs>
    <g id="behance-icon" stroke="none" stroke-width="1" fill="none" fill-rule="evenodd">
        <path d="M1,6.75 L1,25.25 L9.9375,25.25 C10.765625,25.25 16.46875,25.082031 16.46875,19.875 C16.46875,16.621094 14.230469,15.515625 13.09375,15.1875 C13.929688,14.792969 15.59375,13.855469 15.59375,11.34375 C15.59375,9.945313 15.394531,6.75 9.6875,6.75 L1,6.75 Z M21.375,8.46875 L21.375,10.15625 L28.28125,10.15625 L28.28125,8.46875 L21.375,8.46875 Z M5.0625,9.90625 L8.875,9.90625 C9.234375,9.90625 11.65625,9.714844 11.65625,12.03125 C11.65625,14.011719 9.90625,14.21875 9.1875,14.21875 L5.0625,14.21875 L5.0625,9.90625 Z M25,11.6875 C19.777344,11.6875 18.6875,16.222656 18.6875,18.1875 C18.6875,24.019531 23.46875,24.6875 25,24.6875 C29.128906,24.6875 30.300781,22.015625 30.78125,20.53125 L27.78125,20.53125 C27.664063,20.914063 26.789063,22.15625 25.125,22.15625 C22.335938,22.15625 22.09375,19.976563 22.09375,19 L30.96875,19 C31.148438,15.625 29.671875,11.6875 25,11.6875 Z M24.90625,14.21875 C25.738281,14.21875 26.410156,14.460938 26.8125,14.90625 C27.214844,15.355469 27.511719,16.011719 27.59375,16.875 L22.09375,16.875 C22.109375,16.636719 22.164063,16.363281 22.25,16.0625 C22.335938,15.753906 22.46875,15.460938 22.6875,15.1875 C22.90625,14.917969 23.210938,14.683594 23.5625,14.5 C23.921875,14.3125 24.367188,14.21875 24.90625,14.21875 Z M5.0625,17 L9.46875,17 C10.34375,17 12.40625,17.136719 12.40625,19.65625 C12.40625,22.097656 9.808594,22.09375 9.40625,22.09375 L5.0625,22.09375 L5.0625,17 Z" id="icon" fill="#FFFFFF" fill-rule="nonzero"></path>
    </g>
</svg>