<?xml version="1.0" encoding="UTF-8"?>
<svg width="32px" height="32px" viewBox="0 0 32 32" version="1.1" xmlns="http://www.w3.org/2000/svg" xmlns:xlink="http://www.w3.org/1999/xlink">
    <!-- Generator: Sketch 51 (57462) - http://www.bohemiancoding.com/sketch -->
    <title>blocks-icon</title>
    <desc>Created with Sketch.</desc>
    <defs></defs>
    <g id="blocks-icon" stroke="none" stroke-width="1" fill="none" fill-rule="evenodd">
        <path d="M4,18 L14,18 L14,28 L4,28 L4,18 Z M18,18 L28,18 L28,28 L18,28 L18,18 Z M4,4 L14,4 L14,14 L4,14 L4,4 Z M18,4 L28,4 L28,14 L18,14 L18,4 Z M6,20 L6,26 L12,26 L12,20 L6,20 Z M20,20 L20,26 L26,26 L26,20 L20,20 Z M6,6 L6,12 L12,12 L12,6 L6,6 Z M20,6 L20,12 L26,12 L26,6 L20,6 Z" id="icon" fill="#20242E"></path>
    </g>
</svg>