<?xml version="1.0" encoding="UTF-8"?>
<svg width="32px" height="32px" viewBox="0 0 32 32" version="1.1" xmlns="http://www.w3.org/2000/svg" xmlns:xlink="http://www.w3.org/1999/xlink">
    <!-- Generator: Sketch 51 (57462) - http://www.bohemiancoding.com/sketch -->
    <title>calendar-icon-white</title>
    <desc>Created with Sketch.</desc>
    <defs></defs>
    <g id="calendar-icon" stroke="none" stroke-width="1" fill="none" fill-rule="evenodd">
        <path d="M9,4 L9,5 L5,5 L5,27 L27,27 L27,5 L23,5 L23,4 L21,4 L21,5 L11,5 L11,4 L9,4 Z M7,7 L9,7 L9,8 L11,8 L11,7 L21,7 L21,8 L23,8 L23,7 L25,7 L25,9 L7,9 L7,7 Z M7,11 L25,11 L25,25 L7,25 L7,11 Z M13,13 L13,15 L15,15 L15,13 L13,13 Z M17,13 L17,15 L19,15 L19,13 L17,13 Z M21,13 L21,15 L23,15 L23,13 L21,13 Z M9,17 L9,19 L11,19 L11,17 L9,17 Z M13,17 L13,19 L15,19 L15,17 L13,17 Z M17,17 L17,19 L19,19 L19,17 L17,17 Z M21,17 L21,19 L23,19 L23,17 L21,17 Z M9,21 L9,23 L11,23 L11,21 L9,21 Z M13,21 L13,23 L15,23 L15,21 L13,21 Z M17,21 L17,23 L19,23 L19,21 L17,21 Z" id="icon" fill="#FFFFFF" fill-rule="nonzero"></path>
    </g>
</svg>