<?xml version="1.0" encoding="UTF-8"?>
<svg width="32px" height="32px" viewBox="0 0 32 32" version="1.1" xmlns="http://www.w3.org/2000/svg" xmlns:xlink="http://www.w3.org/1999/xlink">
    <!-- Generator: Sketch 51 (57462) - http://www.bohemiancoding.com/sketch -->
    <title>callback-icon-white</title>
    <desc>Created with Sketch.</desc>
    <defs></defs>
    <g id="callback-icon" stroke="none" stroke-width="1" fill="none" fill-rule="evenodd">
        <path d="M20.28125,3.28125 L16.28125,7.28125 L15.59375,8 L16.28125,8.71875 L20.28125,12.71875 L21.71875,11.28125 L19.4375,9 L23,9 C24.65625,9 26,10.34375 26,12 C26,13.65625 24.65625,15 23,15 L22,15 L22,17 L23,17 C25.746094,17 28,14.746094 28,12 C28,9.253906 25.746094,7 23,7 L19.4375,7 L21.71875,4.71875 L20.28125,3.28125 Z M7.8125,7.03125 C7.296875,7.03125 6.78125,7.21875 6.40625,7.59375 L3.78125,10.1875 C3,10.96875 2.726563,12.125 3.03125,13.1875 L3.0625,13.21875 L3.0625,13.25 C3.789063,15.226563 5.53125,19.261719 9.09375,22.71875 C12.605469,26.125 16.472656,27.964844 18.5,28.71875 C18.515625,28.722656 18.546875,28.746094 18.5625,28.75 L18.5625,28.71875 C19.621094,29.140625 20.835938,28.851563 21.59375,28 C21.613281,27.976563 21.636719,27.960938 21.65625,27.9375 L24.21875,25.40625 C24.972656,24.652344 24.972656,23.347656 24.21875,22.59375 L21.03125,19.3125 L21,19.3125 L21,19.28125 C20.246094,18.527344 18.941406,18.527344 18.1875,19.28125 L18.15625,19.34375 L16.625,20.875 C15.984375,20.554688 14.675781,19.863281 13.40625,18.59375 C12.136719,17.324219 11.445313,16.015625 11.125,15.375 L12.71875,13.8125 C13.472656,13.058594 13.472656,11.753906 12.71875,11 L12.6875,11 L12.6875,10.96875 L9.21875,7.59375 C9.210938,7.585938 9.195313,7.601563 9.1875,7.59375 C8.8125,7.230469 8.316406,7.03125 7.8125,7.03125 Z M7.8125,9.03125 L11.28125,12.40625 L8.71875,14.96875 L8.96875,15.59375 C8.96875,15.59375 10.03125,18.03125 12,20 C13.96875,21.96875 16.40625,23.03125 16.40625,23.03125 L17.03125,23.28125 L19.59375,20.71875 L22.78125,24 L20.125,26.65625 C19.890625,26.9375 19.578125,27.003906 19.28125,26.875 L19.25,26.875 C17.464844,26.21875 13.761719,24.449219 10.5,21.28125 C7.289063,18.164063 5.652344,14.464844 4.96875,12.625 C4.871094,12.289063 5,11.8125 5.21875,11.59375 L7.8125,9.03125 Z" id="icon" fill="#FFFFFF" fill-rule="nonzero"></path>
    </g>
</svg>