<?xml version="1.0" encoding="UTF-8"?>
<svg width="32px" height="32px" viewBox="0 0 32 32" version="1.1" xmlns="http://www.w3.org/2000/svg" xmlns:xlink="http://www.w3.org/1999/xlink">
    <!-- Generator: Sketch 54.1 (76490) - https://sketchapp.com -->
    <title>Icon/checkmark-green</title>
    <desc>Created with Sketch.</desc>
    <g id="Icon/checkmark-green" stroke="none" stroke-width="1" fill="none" fill-rule="evenodd">
        <path d="M16,3 C8.800781,3 3,8.800781 3,16 C3,23.199219 8.800781,29 16,29 C23.199219,29 29,23.199219 29,16 C29,14.601563 28.8125,13.207031 28.3125,11.90625 L26.6875,13.5 C26.886719,14.300781 27,15.101563 27,16 C27,22.101563 22.101563,27 16,27 C9.898438,27 5,22.101563 5,16 C5,9.898438 9.898438,5 16,5 C19,5 21.695313,6.195313 23.59375,8.09375 L25,6.6875 C22.699219,4.386719 19.5,3 16,3 Z M27.28125,7.28125 L16,18.5625 L11.71875,14.28125 L10.28125,15.71875 L15.28125,20.71875 L16,21.40625 L16.71875,20.71875 L28.71875,8.71875 L27.28125,7.28125 Z" id="icon" fill="#00C87A"></path>
    </g>
</svg>