<?xml version="1.0" encoding="UTF-8"?>
<svg width="32px" height="32px" viewBox="0 0 32 32" version="1.1" xmlns="http://www.w3.org/2000/svg" xmlns:xlink="http://www.w3.org/1999/xlink">
    <!-- Generator: Sketch 51 (57462) - http://www.bohemiancoding.com/sketch -->
    <title>dribbble-icon-white</title>
    <desc>Created with Sketch.</desc>
    <defs></defs>
    <g id="dribbble-icon" stroke="none" stroke-width="1" fill="none" fill-rule="evenodd">
        <path d="M16,4 C9.382813,4 4,9.382813 4,16 C4,22.617188 9.382813,28 16,28 C22.617188,28 28,22.617188 28,16 C28,9.382813 22.617188,4 16,4 Z M16,6 C18.535156,6 20.832031,6.953125 22.59375,8.5 C22.40625,8.761719 22.152344,9.078125 21.75,9.46875 C20.894531,10.296875 19.527344,11.292969 17.4375,12.0625 C16.023438,9.449219 14.636719,7.484375 13.71875,6.25 C14.449219,6.082031 15.214844,6 16,6 Z M11.75,6.9375 C12.570313,8.011719 14.03125,10.003906 15.5,12.65625 C11.433594,13.734375 7.703125,13.871094 6.21875,13.875 C6.882813,10.785156 8.960938,8.242188 11.75,6.9375 Z M23.96875,9.96875 C25.1875,11.582031 25.945313,13.578125 26,15.75 C25.109375,15.550781 23.796875,15.355469 22.09375,15.34375 C21.207031,15.339844 20.203125,15.402344 19.125,15.53125 C18.875,14.960938 18.605469,14.410156 18.34375,13.875 C20.585938,13.015625 22.113281,11.882813 23.125,10.90625 C23.46875,10.570313 23.738281,10.261719 23.96875,9.96875 Z M16.40625,14.46875 C16.636719,14.933594 16.871094,15.410156 17.09375,15.90625 C12.820313,17.089844 9.75,20.714844 8.4375,22.53125 C6.925781,20.78125 6,18.5 6,16 C6,15.957031 6,15.917969 6,15.875 C7.351563,15.890625 11.648438,15.796875 16.40625,14.46875 Z M22.09375,17.3125 C23.878906,17.3125 25.113281,17.5625 25.84375,17.75 C25.378906,20.414063 23.875,22.699219 21.75,24.1875 C21.351563,21.796875 20.695313,19.523438 19.90625,17.4375 C20.695313,17.359375 21.441406,17.3125 22.09375,17.3125 Z M17.875,17.78125 C18.773438,20.0625 19.527344,22.566406 19.90625,25.21875 C18.710938,25.722656 17.382813,26 16,26 C13.707031,26 11.589844,25.230469 9.90625,23.9375 C10.933594,22.53125 13.953125,18.789063 17.875,17.78125 Z" id="icon" fill="#FFFFFF" fill-rule="nonzero"></path>
    </g>
</svg>