<?xml version="1.0" encoding="UTF-8"?>
<svg width="32px" height="32px" viewBox="0 0 32 32" version="1.1" xmlns="http://www.w3.org/2000/svg" xmlns:xlink="http://www.w3.org/1999/xlink">
    <!-- Generator: Sketch 51 (57462) - http://www.bohemiancoding.com/sketch -->
    <title>email-icon-white</title>
    <desc>Created with Sketch.</desc>
    <defs></defs>
    <g id="email-icon" stroke="none" stroke-width="1" fill="none" fill-rule="evenodd">
        <path d="M16.1875,4 C8.824219,3.890625 2.914063,10.484375 4.15625,18.03125 C5,23.152344 9.203125,27.179688 14.34375,27.875 C17.808594,28.34375 21.046875,27.34375 23.5,25.375 L22.25,23.8125 C20.203125,25.453125 17.511719,26.300781 14.59375,25.90625 C10.339844,25.332031 6.851563,21.953125 6.15625,17.71875 C5.109375,11.347656 9.992188,5.910156 16.15625,6 C21.410156,6.078125 25.839844,10.433594 26,15.6875 C26.003906,15.800781 26,15.910156 26,16.03125 C25.992188,18.234375 24.207031,20 22,20 C20.882813,20 20,19.117188 20,18 L20,10 L18,10 L18,10.78125 C17.28125,10.292969 16.425781,10 15.5,10 C13.027344,10 11,12.027344 11,14.5 L11,17.5 C11,19.972656 13.027344,22 15.5,22 C16.847656,22 18.046875,21.386719 18.875,20.4375 C19.609375,21.371094 20.730469,22 22,22 C25.285156,22 27.988281,19.320313 28,16.03125 C28,15.898438 28.003906,15.769531 28,15.625 C27.808594,9.289063 22.523438,4.09375 16.1875,4 Z M15.5,12 C16.890625,12 18,13.109375 18,14.5 L18,17.5 C18,18.890625 16.890625,20 15.5,20 C14.109375,20 13,18.890625 13,17.5 L13,14.5 C13,13.109375 14.109375,12 15.5,12 Z" id="icon" fill="#FFFFFF" fill-rule="nonzero"></path>
    </g>
</svg>