<?xml version="1.0" encoding="UTF-8"?>
<svg width="12px" height="12px" viewBox="0 0 12 12" version="1.1" xmlns="http://www.w3.org/2000/svg" xmlns:xlink="http://www.w3.org/1999/xlink">
    <!-- Generator: Sketch 49.3 (51167) - http://www.bohemiancoding.com/sketch -->
    <title>info-icon</title>
    <desc>Created with Sketch.</desc>
    <defs></defs>
    <g id="info-icon" stroke="none" stroke-width="1" fill="none" fill-rule="evenodd">
        <path d="M3.71724257,2.38223164 C3.86451828,2.26219952 4.02586939,2.14817072 4.20130075,2.04014182 C4.37673211,1.93211291 4.56623845,1.83808917 4.76982546,1.75806776 C4.97341247,1.67804635 5.19432272,1.61503043 5.43256283,1.56901812 C5.67080295,1.52300581 5.92853157,1.5 6.20575644,1.5 C6.58260898,1.5 6.92588619,1.54801213 7.23559834,1.64403782 C7.54531049,1.74006351 7.81061937,1.87709812 8.03153293,2.05514576 C8.25244649,2.2331934 8.42354364,2.44824771 8.54482952,2.70031515 C8.6661154,2.95238259 8.72675743,3.23445383 8.72675743,3.54653733 C8.72675743,3.85061869 8.67911012,4.11368513 8.58381407,4.33574455 C8.48851803,4.55780396 8.36831686,4.75085272 8.22320697,4.91489661 C8.07809708,5.0789405 7.92107754,5.22097637 7.75214364,5.34100849 C7.58320974,5.4610406 7.42294152,5.57406915 7.27133418,5.68009752 C7.11972683,5.78612588 6.98869673,5.89015216 6.87823995,5.99217945 C6.76778317,6.09420675 6.70172667,6.2092358 6.68006848,6.33727006 L6.5306277,7.21350012 L5.43256283,7.21350012 L5.3221066,6.23524327 C5.31777497,6.21523792 5.31560918,6.19823363 5.31560918,6.18422988 L5.31560918,6.13321649 C5.31560918,5.95716938 5.36325649,5.80413073 5.45855253,5.67409594 C5.55384858,5.54406115 5.67296685,5.42203033 5.81591092,5.30799982 C5.95885499,5.19396931 6.11262585,5.08294127 6.27722811,4.97491236 C6.44183038,4.86688346 6.59560124,4.7498539 6.73854531,4.62382018 C6.88148938,4.49778646 7.00060765,4.35475034 7.09590369,4.19470752 C7.19119974,4.03466469 7.23884705,3.8466172 7.23884705,3.63055939 C7.23884705,3.48652086 7.20960893,3.35748827 7.15113181,3.24345776 C7.09265469,3.12942725 7.01143769,3.03140249 6.90747836,2.94938055 C6.80351904,2.8673586 6.6789863,2.80434268 6.53387641,2.76033091 C6.38876652,2.71631913 6.23174698,2.69431358 6.06281308,2.69431358 C5.81590969,2.69431358 5.60691127,2.71931989 5.43581155,2.76933327 C5.26471183,2.81934665 5.11960411,2.8753608 5.00048406,2.93737739 C4.881364,2.99939399 4.78065491,3.05540813 4.69835378,3.10542152 C4.61605265,3.1554349 4.5424159,3.18044121 4.47744132,3.18044121 C4.32150234,3.18044121 4.20888143,3.12042605 4.13957521,3.00039394 L3.71724257,2.38223164 Z M4.94525594,9.45808945 C4.94525594,9.33405627 4.97016249,9.21602646 5.01997633,9.10399649 C5.06979017,8.99196651 5.13909535,8.89594226 5.22789394,8.81592085 C5.31669253,8.73589944 5.42173319,8.67188327 5.54301906,8.62387042 C5.66430494,8.57585758 5.79425215,8.55185152 5.93286458,8.55185152 C6.06714537,8.55185152 6.19492679,8.57585758 6.31621267,8.62387042 C6.43749854,8.67188327 6.54145631,8.73589944 6.62808908,8.81592085 C6.71472185,8.89594226 6.78402702,8.99196651 6.83600668,9.10399649 C6.88798635,9.21602646 6.91397579,9.33405627 6.91397579,9.45808945 C6.91397579,9.58612371 6.88798635,9.70515377 6.83600668,9.81518321 C6.78402702,9.92521265 6.71472185,10.0202367 6.62808908,10.1002581 C6.54145631,10.1802795 6.43749854,10.2432954 6.31621267,10.2893077 C6.19492679,10.33532 6.06714537,10.3583258 5.93286458,10.3583258 C5.79425215,10.3583258 5.66430494,10.33532 5.54301906,10.2893077 C5.42173319,10.2432954 5.31669253,10.1802795 5.22789394,10.1002581 C5.13909535,10.0202367 5.06979017,9.92521265 5.01997633,9.81518321 C4.97016249,9.70515377 4.94525594,9.58612371 4.94525594,9.45808945 Z" id="Icon" fill="#7A8292"></path>
    </g>
</svg>