<?xml version="1.0" encoding="UTF-8"?>
<svg width="32px" height="32px" viewBox="0 0 32 32" version="1.1" xmlns="http://www.w3.org/2000/svg" xmlns:xlink="http://www.w3.org/1999/xlink">
    <!-- Generator: Sketch 51 (57462) - http://www.bohemiancoding.com/sketch -->
    <title>keyboard-icon</title>
    <desc>Created with Sketch.</desc>
    <defs></defs>
    <g id="keyboard-icon" stroke="none" stroke-width="1" fill="none" fill-rule="evenodd">
        <path d="M3,7 C1.90625,7 1,7.90625 1,9 L1,23 C1,24.09375 1.90625,25 3,25 L29,25 C30.09375,25 31,24.09375 31,23 L31,9 C31,7.90625 30.09375,7 29,7 L3,7 Z M3,9 L29,9 L29,23 L3,23 L3,9 Z M5,11 L5,13 L7,13 L7,11 L5,11 Z M9,11 L9,13 L11,13 L11,11 L9,11 Z M13,11 L13,13 L15,13 L15,11 L13,11 Z M17,11 L17,13 L19,13 L19,11 L17,11 Z M21,11 L21,13 L23,13 L23,11 L21,11 Z M25,11 L25,13 L27,13 L27,11 L25,11 Z M5,15 L5,17 L9,17 L9,15 L5,15 Z M11,15 L11,17 L13,17 L13,15 L11,15 Z M15,15 L15,17 L17,17 L17,15 L15,15 Z M19,15 L19,17 L21,17 L21,15 L19,15 Z M23,15 L23,17 L27,17 L27,15 L23,15 Z M5,19 L5,21 L9,21 L9,19 L5,19 Z M11,19 L11,21 L21,21 L21,19 L11,19 Z M23,19 L23,21 L27,21 L27,19 L23,19 Z" id="icon" fill="#20242E" fill-rule="nonzero"></path>
    </g>
</svg>