<?xml version="1.0" encoding="UTF-8"?>
<svg width="32px" height="32px" viewBox="0 0 32 32" version="1.1" xmlns="http://www.w3.org/2000/svg" xmlns:xlink="http://www.w3.org/1999/xlink">
    <!-- Generator: Sketch 51 (57462) - http://www.bohemiancoding.com/sketch -->
    <title>phone-icon</title>
    <desc>Created with Sketch.</desc>
    <defs></defs>
    <g id="phone-icon" stroke="none" stroke-width="1" fill="none" fill-rule="evenodd">
        <path d="M8.68446804,3 C8.16146804,3 7.64546804,3.188 7.21646804,3.531 L7.15346804,3.562 L7.12246804,3.594 L3.99746804,6.812 L4.02846804,6.844 C3.06346804,7.734 2.76646804,9.066 3.18446804,10.219 C3.18846804,10.227 3.18046804,10.242 3.18446804,10.25 C4.03246804,12.676 6.20046804,17.359 10.434468,21.594 C14.684468,25.844 19.430468,27.926 21.778468,28.844 L21.809468,28.844 C23.024468,29.25 24.340468,28.961 25.278468,28.156 L28.434468,25 C29.262468,24.172 29.262468,22.734 28.434468,21.906 L24.372468,17.844 L24.340468,17.781 C23.512468,16.953 22.044468,16.953 21.216468,17.781 L19.216468,19.781 C18.493468,19.434 16.770468,18.543 15.122468,16.969 C13.485468,15.406 12.649468,13.609 12.340468,12.906 L14.340468,10.906 C15.180468,10.066 15.196468,8.668 14.309468,7.844 L14.340468,7.812 L14.247468,7.719 L10.247468,3.594 L10.216468,3.562 L10.153468,3.531 C9.72346804,3.188 9.20846804,3 8.68446804,3 Z M8.68446804,5 C8.75846804,5 8.83346804,5.035 8.90346804,5.094 L12.903468,9.188 L12.997468,9.281 C12.989468,9.273 13.055468,9.379 12.934468,9.5 L10.434468,12 L9.96646804,12.438 L10.184468,13.062 C10.184468,13.062 11.333468,16.137 13.747468,18.438 L13.966468,18.625 C16.290468,20.746 19.028468,21.906 19.028468,21.906 L19.653468,22.188 L22.622468,19.219 C22.794468,19.047 22.762468,19.047 22.934468,19.219 L27.028468,23.312 C27.200468,23.484 27.200468,23.422 27.028468,23.594 L23.966468,26.656 C23.505468,27.051 23.016468,27.133 22.434468,26.938 C20.169468,26.047 15.766468,24.113 11.840468,20.188 C7.88346804,16.23 5.81746804,11.742 5.05946804,9.562 C4.90746804,9.156 5.01646804,8.555 5.37246804,8.25 L5.43446804,8.188 L8.46646804,5.094 C8.53646804,5.035 8.61046804,5 8.68446804,5 Z" id="icon" fill="#20242E"></path>
    </g>
</svg>