<?xml version="1.0" encoding="UTF-8"?>
<svg width="32px" height="32px" viewBox="0 0 32 32" version="1.1" xmlns="http://www.w3.org/2000/svg" xmlns:xlink="http://www.w3.org/1999/xlink">
    <!-- Generator: Sketch 51 (57462) - http://www.bohemiancoding.com/sketch -->
    <title>pin-icon</title>
    <desc>Created with Sketch.</desc>
    <defs></defs>
    <g id="pin-icon" stroke="none" stroke-width="1" fill="none" fill-rule="evenodd">
        <path d="M16,3 C11.043,3 7,7.043 7,12 C7,13.406 7.57,15.02 8.344,16.781 C9.117,18.543 10.113,20.414 11.125,22.156 C13.148,25.645 15.188,28.562 15.188,28.562 L16,29.75 L16.812,28.562 C16.812,28.562 18.852,25.645 20.875,22.156 C21.887,20.414 22.883,18.543 23.656,16.781 C24.43,15.02 25,13.406 25,12 C25,7.043 20.957,3 16,3 Z M16,5 C19.879,5 23,8.121 23,12 C23,12.801 22.57,14.316 21.844,15.969 C21.117,17.621 20.113,19.453 19.125,21.156 C17.555,23.867 16.578,25.301 16,26.156 C15.422,25.301 14.445,23.867 12.875,21.156 C11.887,19.453 10.883,17.621 10.156,15.969 C9.43,14.316 9,12.801 9,12 C9,8.121 12.121,5 16,5 Z M16,10 C14.895,10 14,10.895 14,12 C14,13.105 14.895,14 16,14 C17.105,14 18,13.105 18,12 C18,10.895 17.105,10 16,10 Z" id="icon" fill="#20242E"></path>
    </g>
</svg>