<?xml version="1.0" encoding="UTF-8"?>
<svg width="32px" height="32px" viewBox="0 0 32 32" version="1.1" xmlns="http://www.w3.org/2000/svg" xmlns:xlink="http://www.w3.org/1999/xlink">
    <!-- Generator: Sketch 51 (57462) - http://www.bohemiancoding.com/sketch -->
    <title>tag-icon</title>
    <desc>Created with Sketch.</desc>
    <defs></defs>
    <g id="tag-icon" stroke="none" stroke-width="1" fill="none" fill-rule="evenodd">
        <path d="M16,5 L15.6875,5.28125 L4.28125,16.8125 L3.59375,17.5 L4.28125,18.21875 L13.78125,27.71875 L14.5,28.40625 L15.1875,27.71875 L26.71875,16.3125 L27,16 L27,5 L16,5 Z M16.84375,7 L25,7 L25,15.15625 L14.5,25.59375 L6.40625,17.5 L16.84375,7 Z M22,9 C21.449219,9 21,9.449219 21,10 C21,10.550781 21.449219,11 22,11 C22.550781,11 23,10.550781 23,10 C23,9.449219 22.550781,9 22,9 Z" id="icon" fill="#20242E" fill-rule="nonzero"></path>
    </g>
</svg>